M48
; DRILL file {KiCad 9.0.1} date 2025-07-08T20:09:21-0700
; FORMAT={-:-/ absolute / metric / decimal}
; #@! TF.CreationDate,2025-07-08T20:09:21-07:00
; #@! TF.GenerationSoftware,Kicad,Pcbnew,9.0.1
; #@! TF.FileFunction,MixedPlating,1,4
FMAT,2
METRIC
; #@! TA.AperFunction,Plated,PTH,ViaDrill
T1C0.300
; #@! TA.AperFunction,Plated,PTH,ComponentDrill
T2C0.300
; #@! TA.AperFunction,Plated,PTH,ComponentDrill
T3C0.600
; #@! TA.AperFunction,Plated,PTH,ComponentDrill
T4C0.700
; #@! TA.AperFunction,Plated,PTH,ComponentDrill
T5C0.800
; #@! TA.AperFunction,Plated,PTH,ComponentDrill
T6C1.100
; #@! TA.AperFunction,NonPlated,NPTH,ComponentDrill
T7C0.650
; #@! TA.AperFunction,NonPlated,NPTH,ComponentDrill
T8C0.991
; #@! TA.AperFunction,NonPlated,NPTH,ComponentDrill
T9C2.375
%
G90
G05
T1
X129.45Y-121.325
X129.625Y-136.325
X130.45Y-94.35
X134.375Y-103.875
X135.4Y-119.9
X135.575Y-111.225
X135.9Y-122.1
X136.1Y-119.4
X138.025Y-94.25
X140.249Y-108.5
X140.35Y-101.45
X140.5Y-109.8
X140.5Y-110.45
X140.7Y-108.1
X141.46Y-77.6
X141.51Y-79.05
X142.0Y-74.0
X142.59Y-75.46
X142.91Y-79.05
X143.1Y-99.7
X143.3Y-132.571
X143.775Y-135.725
X143.8Y-112.85
X144.0Y-94.6
X144.125Y-77.275
X144.25Y-113.35
X144.3Y-103.2
X144.975Y-95.775
X145.05Y-107.85
X145.35Y-76.7
X146.075Y-112.625
X146.8Y-102.585
X147.575Y-78.6
X147.85Y-102.1
X147.925Y-73.775
X147.95Y-75.46
X148.025Y-132.525
X148.275Y-78.6
X149.3Y-112.625
X149.725Y-103.7
X150.0Y-106.65
X150.0Y-107.35
X150.2Y-74.55
X150.45Y-106.1
X150.55Y-76.8
X150.55Y-110.1
X150.65Y-116.6
X150.8Y-126.025
X151.2Y-119.205
X151.3Y-101.975
X151.6Y-93.6
X151.6Y-105.41
X151.65Y-109.0
X151.65Y-116.6
X151.65Y-121.4
X151.65Y-122.15
X151.65Y-122.9
X151.775Y-125.775
X152.117Y-119.205
X152.175Y-97.2
X152.25Y-129.375
X152.3Y-73.95
X152.6Y-116.6
X153.525Y-112.175
X155.0Y-103.675
X155.425Y-114.125
X157.0Y-104.1
X158.05Y-117.325
X159.15Y-107.05
X159.3Y-108.0
X160.4Y-96.8
X164.0Y-111.275
X164.55Y-110.775
X164.725Y-95.275
X165.075Y-111.275
T2
X153.042Y-129.871
T4
X138.567Y-115.88
X138.567Y-117.66
X138.567Y-119.44
X138.567Y-121.22
X138.567Y-123.0
X138.567Y-124.78
X138.567Y-126.56
X138.567Y-128.34
X149.267Y-116.77
X149.267Y-118.55
X149.267Y-120.33
X149.267Y-122.11
X149.267Y-123.89
X149.267Y-125.67
X149.267Y-127.45
X149.267Y-129.23
T5
X156.0Y-84.4
X156.0Y-86.9
X156.0Y-89.4
T6
X127.8Y-109.24
X127.8Y-114.32
X127.8Y-119.4
X127.8Y-124.24
X127.8Y-129.32
X127.8Y-134.4
X128.45Y-82.17
X128.45Y-87.25
X128.45Y-92.33
X136.0Y-82.12
X136.0Y-87.2
X136.0Y-92.28
X163.75Y-82.17
X163.75Y-87.25
X163.75Y-92.33
T7
X145.047Y-71.091
X150.827Y-71.091
T8
X150.244Y-102.105
X151.26Y-97.025
X152.276Y-102.105
T9
X148.72Y-97.025
X148.72Y-100.2
X153.8Y-97.025
X153.8Y-100.2
T3
G00X143.617Y-67.811
M15
G01X143.617Y-67.011
M16
G05
G00X143.617Y-72.141
M15
G01X143.617Y-71.041
M16
G05
G00X152.257Y-67.811
M15
G01X152.257Y-67.011
M16
G05
G00X152.257Y-72.141
M15
G01X152.257Y-71.041
M16
G05
M30
